<svg version="1.1" id="Layer_1" xmlns="http://www.w3.org/2000/svg" xmlns:xlink="http://www.w3.org/1999/xlink" x="0px" y="0px"
	 width="100%" viewBox="0 0 1024 1024" enable-background="new 0 0 1024 1024" xml:space="preserve">
<path fill="#000000" opacity="1.000000" stroke="none" 
	d="
M920.231995,369.114990 
	C914.990417,380.116486 909.895447,390.774994 904.800537,401.433533 
	C905.026001,401.666534 905.251526,401.899536 905.476990,402.132568 
	C937.015015,380.768250 968.553040,359.403931 1000.112366,338.025177 
	C1001.587524,340.155884 1000.372681,341.452545 999.821594,342.705627 
	C983.526367,379.753998 967.150085,416.766754 950.901794,453.835632 
	C949.269104,457.560364 947.171082,458.565735 944.237671,455.782440 
	C936.633606,448.567596 929.961609,450.338104 922.856018,456.824951 
	C918.465210,460.833374 913.219116,463.955505 908.156372,467.158386 
	C905.110901,469.085022 904.377625,471.070526 905.493469,474.578033 
	C917.651001,512.794250 929.666565,551.055603 941.704102,589.309937 
	C946.599365,604.866577 951.363708,620.465271 956.393921,635.977966 
	C957.578125,639.629944 956.932861,641.617432 953.491150,643.622314 
	C913.617371,666.849609 873.869568,690.293274 833.977356,713.488708 
	C829.958740,715.825439 828.120117,718.696655 827.318176,723.134277 
	C824.658081,737.854553 821.978333,752.586060 818.689697,767.174377 
	C813.498962,790.199951 796.214417,801.105408 772.972168,796.900574 
	C754.479126,793.554932 735.916931,790.593140 717.397949,787.388428 
	C713.114563,786.647156 709.418640,787.375305 705.561890,789.642029 
	C673.819519,808.296936 641.984131,826.794189 610.135376,845.267517 
	C554.222778,877.698608 498.289764,910.094666 442.347443,942.474548 
	C405.434906,963.839966 368.492157,985.153076 331.556427,1006.478394 
	C330.571381,1007.047119 329.511108,1007.485596 328.696075,1007.882446 
	C327.086945,1007.425537 326.742340,1006.231262 326.237305,1005.207520 
	C293.805145,939.472290 261.372406,873.737366 228.967209,807.988831 
	C224.180801,798.277466 219.431396,788.545105 214.866959,778.728516 
	C213.304962,775.369141 211.685760,774.509644 207.996658,775.990295 
	C194.399643,781.447693 180.651306,786.528442 166.950806,791.726868 
	C166.206635,792.009216 165.380005,792.074280 163.923996,792.381226 
	C163.997757,787.422119 166.433899,783.540039 167.942932,779.526672 
	C173.920197,763.629456 180.130997,747.817932 186.457733,732.055847 
	C187.818298,728.666260 187.724609,725.850586 186.129669,722.574585 
	C162.940796,674.946228 139.775269,627.306213 116.759308,579.594055 
	C85.348740,514.479858 54.108711,449.283386 22.647388,384.193787 
	C20.606638,379.971771 21.499922,378.352478 25.488119,376.351349 
	C51.247654,363.426331 76.815163,350.118134 102.594223,337.232849 
	C107.183830,334.938812 106.801643,332.298645 105.547836,328.412323 
	C91.543365,285.004181 77.633598,241.565536 63.714485,198.129929 
	C63.323063,196.908463 62.443333,195.736923 63.213463,193.975037 
	C65.490334,193.643600 67.029877,195.368088 68.741699,196.441864 
	C114.612679,225.215698 160.490616,253.978683 206.273376,282.892365 
	C209.570709,284.974792 212.007645,284.907257 215.364975,283.188568 
	C241.316650,269.903198 267.365051,256.806702 293.395538,243.675659 
	C295.206879,242.761932 296.776123,241.600525 298.214233,240.174179 
	C344.119659,194.643372 390.037506,149.125076 435.972351,103.623924 
	C437.227814,102.380302 438.202637,100.641319 441.317078,100.497055 
	C444.943298,120.885948 448.587280,141.374588 452.187134,161.615219 
	C454.785553,162.565826 456.254181,161.133652 457.802490,160.382690 
	C508.314575,135.882645 558.809326,111.346703 609.297485,86.797249 
	C657.840454,63.193626 706.398193,39.620102 754.867615,15.866271 
	C759.178406,13.753633 760.539001,14.898355 761.845276,19.005060 
	C770.270081,45.492611 778.884705,71.919769 787.429932,98.369026 
	C789.615845,105.134865 789.640625,105.163902 796.512390,103.413872 
	C822.149597,96.884895 847.783508,90.342659 873.429504,83.848228 
	C874.666077,83.535088 875.926941,82.808357 877.488586,83.509560 
	C877.762634,85.602242 875.795044,86.105324 874.685242,87.015915 
	C852.017395,105.613914 829.348816,124.211823 806.542053,142.638580 
	C803.546509,145.058807 803.091919,147.210907 804.243469,150.744095 
	C818.888916,195.681152 833.448486,240.646515 847.846558,285.663300 
	C849.123291,289.655029 851.305908,291.064484 855.179321,291.731445 
	C865.122131,293.443542 875.494873,293.549896 884.573120,298.831024 
	C886.769958,300.108978 887.981140,298.424072 889.398804,297.419586 
	C920.668518,275.263641 951.924561,253.088211 983.196350,230.935196 
	C983.974304,230.384140 984.610229,229.449295 987.049377,229.845734 
	C964.721008,276.372894 942.549805,322.572449 920.231995,369.114990 
M462.067017,617.524719 
	C475.206055,608.110229 488.345062,598.695679 501.484100,589.281128 
	C501.865082,589.646790 502.246094,590.012451 502.627075,590.378052 
	C486.273254,620.210510 469.919464,650.042969 453.705170,679.620911 
	C454.302307,680.437622 454.437592,680.807800 454.698212,680.952820 
	C477.545624,693.671692 500.309814,706.544922 523.310730,718.980347 
	C531.047424,723.163147 539.810242,720.079102 544.323608,712.100281 
	C558.754944,686.588379 572.937073,660.935486 587.350220,635.413208 
	C589.475769,631.649353 588.976868,629.441040 585.461609,626.773560 
	C562.632324,609.450134 539.965759,591.911926 517.279663,574.400452 
	C515.795654,573.255005 513.732300,572.444763 513.601440,569.977966 
	C515.502502,568.385986 517.853516,567.990967 520.081238,567.618774 
	C531.282166,565.747742 540.984497,560.335876 549.027100,552.943420 
	C557.146423,545.480408 565.635803,544.764771 575.353455,547.309082 
	C577.800720,547.949890 580.364380,548.350220 582.782959,547.740784 
	C593.517151,545.036133 604.210999,542.168945 614.897217,539.278503 
	C615.979126,538.985901 616.877258,538.070312 617.919434,537.565002 
	C623.749023,534.738281 628.974121,530.096802 636.283813,531.818420 
	C641.801331,533.117859 644.660095,530.083923 647.218872,525.506653 
	C679.970398,466.920502 712.876038,408.420502 745.729370,349.891235 
	C752.086792,338.565308 749.714050,329.944000 738.389648,323.549225 
	C709.957703,307.494019 681.489746,291.502319 653.043213,275.472931 
	C646.686646,271.891113 643.855347,272.015778 638.063904,276.690765 
	C623.948303,288.085175 609.236755,298.684998 594.615723,309.404602 
	C590.518250,312.408691 586.756287,315.938019 581.555725,318.488556 
	C581.738220,316.614380 581.696777,315.296783 582.011230,314.070465 
	C587.260254,293.598511 592.513855,273.127533 597.857849,252.680222 
	C599.901733,244.859787 599.873840,244.575317 592.738220,240.520706 
	C578.543762,232.455093 564.331299,224.420776 550.163147,216.309189 
	C540.333740,210.681610 530.844238,213.268051 525.185303,223.290771 
	C515.113586,241.129181 505.057098,258.976288 495.024933,276.837006 
	C479.692047,304.134735 464.374756,331.441162 449.073608,358.756683 
	C444.052399,367.720490 445.025543,369.762451 455.152252,371.544952 
	C475.478241,375.122864 495.833984,378.536469 516.135681,382.246521 
	C544.463013,387.423279 572.766052,392.737183 601.044006,398.176666 
	C605.789429,399.089539 610.803894,399.184296 616.422424,401.648956 
	C537.546509,441.911774 459.697021,481.650604 381.866180,521.379883 
	C381.042938,519.925903 381.578857,519.236145 381.996948,518.548401 
	C385.456085,512.858643 388.978638,507.206543 392.359375,501.470795 
	C393.293854,499.885376 395.410492,498.135406 393.461243,496.192200 
	C391.721100,494.457520 389.449005,495.296906 387.344666,496.040894 
	C378.609863,499.128967 371.124084,503.471527 367.560669,512.843201 
	C365.978485,517.004150 363.304718,520.749939 361.126343,524.684143 
	C348.945160,546.683655 336.694794,568.645264 324.615692,590.700684 
	C319.579376,599.896606 322.206207,609.306335 331.104523,614.308716 
	C354.629486,627.533936 378.253113,640.584045 401.750122,653.858521 
	C405.271210,655.847717 407.956390,655.813965 411.284210,653.428894 
	C427.940063,641.491211 444.739685,629.754211 462.067017,617.524719 
M223.085617,537.582947 
	C220.268402,542.482605 217.354858,547.330200 214.669601,552.301086 
	C213.021637,555.351807 210.223328,558.331848 210.613907,561.799561 
	C211.133301,566.410889 209.039688,569.695190 207.253586,573.464844 
	C205.368393,577.443665 201.712753,580.846436 203.557312,586.274658 
	C209.179947,602.820984 214.414429,619.499146 219.818832,636.119812 
	C220.264069,637.489136 220.418961,639.390747 222.457214,639.164673 
	C224.201370,638.971252 224.556656,637.234497 225.112091,635.848755 
	C225.948074,633.762939 225.799744,631.603149 225.644150,629.435181 
	C225.466476,626.959473 225.228302,624.471497 226.499756,621.777954 
	C230.831268,623.832031 232.288528,620.884644 233.617340,617.644287 
	C236.713470,610.094238 239.787979,602.534241 243.004257,595.035339 
	C243.795074,593.191467 244.134552,590.836243 246.780716,589.888672 
	C246.939026,590.784180 247.204834,591.427246 247.137543,592.033447 
	C245.669617,605.255066 244.197205,618.476379 242.644226,631.688232 
	C242.248657,635.053467 242.103973,638.055908 244.497345,641.065918 
	C265.547119,667.539307 286.503082,694.087830 307.338074,720.730469 
	C310.022308,724.162903 311.979156,724.818176 315.730164,722.064209 
	C335.202087,707.767822 354.867249,693.734680 374.456482,679.597961 
	C375.242462,679.030762 376.184021,678.495361 375.822754,676.608643 
	C370.419189,673.568359 364.670471,670.273254 358.866180,667.079224 
	C340.330811,656.879395 321.652252,646.932678 303.261047,636.479919 
	C284.514465,625.825256 279.094757,604.864563 289.653534,586.180359 
	C298.996216,569.648132 308.200531,553.037781 317.457611,536.457214 
	C318.397644,534.773499 319.470367,533.102905 318.888031,530.116089 
	C306.585968,535.764099 294.713806,541.214722 282.444458,546.847717 
	C282.496521,544.307983 283.794312,543.611877 284.640228,542.652893 
	C295.332367,530.531311 306.017517,518.404236 315.380768,505.193970 
	C318.089813,501.371826 321.311493,498.049377 324.628662,494.744202 
	C337.971466,481.449768 353.449677,470.425293 362.243469,452.592560 
	C372.246063,432.308533 384.308594,413.033691 395.667847,393.431519 
	C397.729004,389.874664 397.564270,387.160919 395.207611,383.926636 
	C390.206360,377.062958 385.465118,370.009399 380.645081,363.014557 
	C379.729614,361.686035 378.340546,360.525452 378.711456,358.689758 
	C379.385223,357.872711 380.230194,357.909271 381.043640,358.064697 
	C387.419464,359.282990 393.787384,360.542572 400.163147,361.761139 
	C408.968231,363.444031 409.113953,363.514587 413.578369,355.609619 
	C427.176514,331.531769 440.646912,307.381805 454.188293,283.271851 
	C455.464447,280.999695 455.926636,278.700806 455.463684,276.086884 
	C449.836182,244.313080 444.269043,212.528580 438.668304,180.750015 
	C436.387573,167.809174 434.187714,154.852051 431.702057,141.950302 
	C430.603668,136.248978 427.746918,135.509277 423.491455,139.414886 
	C422.141418,140.653976 420.833069,141.939590 419.529053,143.227600 
	C366.656616,195.450241 313.786072,247.674774 260.918030,299.901886 
	C254.990662,305.757385 248.992981,311.545532 243.196518,317.528229 
	C240.110291,320.713623 237.513306,321.459320 233.328674,318.805084 
	C212.367035,305.509308 191.185638,292.559845 170.072266,279.503510 
	C149.101273,266.535248 128.141541,253.548447 107.123634,240.656586 
	C102.892296,238.061203 98.397713,240.020294 97.908775,244.585312 
	C97.721252,246.336166 98.142525,248.272003 98.732941,249.968094 
	C105.415802,269.166382 110.370667,288.887817 116.472404,308.262054 
	C131.225494,355.106079 145.676559,402.045013 161.052689,448.692108 
	C166.733871,465.927307 172.034286,483.287750 177.603409,500.560394 
	C179.184219,505.463318 181.264648,506.099213 185.112442,502.743256 
	C188.775162,499.548645 191.711441,495.804871 192.767776,490.770477 
	C194.439041,482.805176 199.502121,478.840454 207.651779,477.774292 
	C214.367111,476.895752 221.332535,476.287384 226.700165,471.298218 
	C241.953049,457.120667 258.174744,444.021484 273.131378,429.509308 
	C276.015747,426.710663 278.772827,423.638702 282.378510,421.626587 
	C283.349609,423.015900 282.483673,423.833344 282.065369,424.656342 
	C270.903198,446.615875 258.417725,467.906738 249.109955,490.804565 
	C246.174362,498.026337 241.003433,504.245300 237.990875,511.329498 
	C234.084015,520.516663 229.268661,528.967407 223.085617,537.582947 
M626.772949,658.728027 
	C625.966553,658.136292 625.156799,657.549133 624.354309,656.952148 
	C617.722595,652.018860 615.919373,652.343384 611.992432,659.316406 
	C600.057922,680.508545 588.128540,701.703674 576.252625,722.928711 
	C575.233276,724.750610 573.715881,726.478394 574.023682,728.836975 
	C575.360901,730.096741 577.011292,730.342224 578.639038,730.614868 
	C603.414917,734.763611 628.199768,738.859009 652.966797,743.059509 
	C691.013062,749.512268 729.042175,756.065369 767.089355,762.512634 
	C779.330078,764.586853 786.786682,759.023376 788.860168,746.524475 
	C788.969055,745.867920 789.136902,745.221375 789.270874,744.568787 
	C799.273987,695.826782 809.279053,647.085205 819.277649,598.342285 
	C823.825317,576.172546 828.364014,554.000977 832.894287,531.827698 
	C833.370422,529.497253 833.746216,527.150024 831.318237,525.533020 
	C828.841492,523.883484 826.743958,524.662842 824.467834,526.236755 
	C802.681763,541.301208 780.909058,556.382568 759.549011,572.051270 
	C758.171692,573.061584 757.015320,574.707947 754.934143,574.494995 
	C754.836792,574.092468 754.594055,573.654297 754.714417,573.500793 
	C756.351807,571.411499 758.058533,569.376831 759.711792,567.299744 
	C792.592468,525.991333 825.636353,484.819275 860.893311,445.483856 
	C865.119629,440.768616 869.086243,435.891418 871.869690,430.081329 
	C891.230103,389.669098 910.702698,349.310577 930.091248,308.911774 
	C932.032166,304.867615 933.856934,300.755341 933.002869,295.995697 
	C932.222961,291.649475 929.562622,290.238892 925.998108,292.621948 
	C911.880005,302.060516 898.035522,311.881470 884.537476,322.194458 
	C852.103943,346.974976 820.563782,372.867310 789.020813,398.757629 
	C788.114197,399.501740 787.303589,400.973267 785.312744,399.561371 
	C808.676941,374.910278 832.986023,351.397308 857.800659,327.462128 
	C832.710388,320.506592 807.219788,318.071716 782.095947,313.432007 
	C781.924072,314.536835 781.766174,314.882721 781.848755,315.155975 
	C782.039734,315.788269 782.308533,316.405334 782.613037,316.993774 
	C789.220703,329.762970 788.412964,341.966034 781.223999,354.505676 
	C757.196899,396.415680 733.558411,438.548492 709.781860,480.602081 
	C702.649353,493.217285 695.536377,505.843719 688.460266,518.490601 
	C687.667175,519.908142 686.616577,521.509338 687.735352,523.158813 
	C688.827209,524.768616 690.602356,524.567078 692.291199,524.313293 
	C719.115601,520.282349 745.940186,516.252075 772.765686,512.228516 
	C773.981750,512.046143 775.305054,511.219299 776.306396,512.614136 
	C776.380981,513.994263 775.300781,514.341370 774.494812,514.835449 
	C752.489502,528.325745 730.497070,541.837524 708.451660,555.262146 
	C689.541077,566.777771 670.471863,578.035767 651.656494,589.703796 
	C639.515869,597.232605 635.026001,612.332947 640.252075,625.553162 
	C647.415649,643.674255 654.469360,661.838806 661.536255,679.997925 
	C662.082092,681.400513 663.251526,682.832275 661.785522,685.041931 
	C650.175293,676.317322 638.759949,667.739075 626.772949,658.728027 
M421.264221,703.811279 
	C434.745239,679.445312 448.226227,655.079285 462.135895,629.938538 
	C458.750092,630.527893 457.301270,631.965576 455.704773,633.106445 
	C408.422424,666.895447 361.124451,700.662598 313.920288,734.560547 
	C310.413910,737.078552 308.470764,737.413757 305.577972,733.570007 
	C293.762970,717.870972 281.620819,702.416931 269.523010,686.932190 
	C261.833832,677.090332 254.027710,667.339600 246.231430,657.582092 
	C244.861786,655.867859 242.627792,653.517090 241.563354,657.200684 
	C239.211304,665.340271 237.322586,673.797058 238.934570,682.263367 
	C239.733154,686.457520 240.425140,690.414856 239.326721,694.522583 
	C237.744263,700.440369 237.959061,706.320862 238.805481,712.346924 
	C239.436081,716.836365 241.481079,719.689514 245.581802,721.342468 
	C249.839661,723.058716 253.747040,725.607483 256.026428,729.514160 
	C257.847229,732.634766 260.202942,734.045654 263.405670,734.720886 
	C272.847565,736.711426 282.291504,738.692322 291.733368,740.683167 
	C292.808960,740.909912 294.173096,740.705505 294.401398,742.529602 
	C293.129822,743.851196 291.276794,744.134460 289.583710,744.728882 
	C279.057434,748.424622 268.575775,752.242981 258.454407,756.957825 
	C253.099701,759.452148 252.349594,763.154114 256.277374,767.475708 
	C260.421112,772.035034 264.640259,776.528931 268.919495,780.961670 
	C289.740631,802.529236 310.571960,824.087158 331.454773,845.594971 
	C334.977264,849.222839 338.612335,849.347290 341.740387,846.143066 
	C342.762573,845.096069 343.455902,843.698425 344.180908,842.395142 
	C369.758911,796.416138 395.322845,750.429260 421.264221,703.811279 
M379.765503,966.215942 
	C386.527771,962.276733 393.230560,958.229675 400.081757,954.451721 
	C402.805481,952.949768 404.150208,950.974548 404.856415,947.963379 
	C417.034698,896.034729 429.350494,844.138367 441.503967,792.203979 
	C442.611450,787.471313 444.268494,782.746338 444.096039,777.791138 
	C442.165619,777.284546 440.826508,778.166016 439.454834,778.633545 
	C424.180786,783.839722 408.957397,789.196838 393.643494,794.281799 
	C390.254822,795.406982 388.037323,797.112122 386.300781,800.309509 
	C372.712677,825.327698 358.952484,850.252502 345.184235,875.172302 
	C344.276489,876.815308 343.868439,879.052246 341.100006,879.623840 
	C333.641022,872.655884 327.202423,864.359802 319.222809,857.558411 
	C317.762604,858.706726 317.528198,859.976501 317.220917,861.278809 
	C312.141785,882.804810 307.074921,904.333984 301.869537,925.829590 
	C301.260895,928.343140 301.804138,930.332886 302.870697,932.489136 
	C312.024261,950.994873 321.115479,969.531494 330.265320,988.039062 
	C331.049713,989.625610 331.538452,991.517944 333.907349,992.492981 
	C348.833069,983.945862 363.985199,975.269104 379.765503,966.215942 
M687.925354,142.448593 
	C675.584900,153.627014 663.174438,164.729904 650.959290,176.043655 
	C648.321777,178.486557 646.660217,178.675018 643.925903,176.171280 
	C640.362427,172.908279 637.063293,169.151917 632.590942,166.788788 
	C629.392334,173.999802 597.400635,292.029327 597.558655,295.790680 
	C678.013794,232.269333 760.559631,171.471176 837.876587,103.914017 
	C836.252136,102.969971 835.030334,103.735443 833.777039,104.056564 
	C809.289062,110.330719 784.797119,116.589333 760.319702,122.904419 
	C757.707825,123.578270 755.199463,123.871544 752.478455,123.416122 
	C741.497986,121.578270 730.447205,120.134552 719.509460,118.081413 
	C715.847290,117.393967 713.481140,118.501999 711.059082,120.796700 
	C703.563660,127.898117 696.006348,134.934219 687.925354,142.448593 
M428.681732,487.129028 
	C481.583466,460.098419 534.485168,433.067810 587.386902,406.037201 
	C587.392822,405.677246 587.398743,405.317261 587.404663,404.957306 
	C524.313293,393.528320 461.221954,382.099335 398.064514,370.658386 
	C397.860443,372.593597 398.832855,373.397614 399.478638,374.312531 
	C406.874146,384.790466 414.282837,395.259155 421.720367,405.707306 
	C427.025635,413.160095 426.998535,413.091034 420.281403,419.244781 
	C384.421509,452.097015 348.661652,485.057007 313.693237,518.862976 
	C312.737030,519.787476 311.450104,520.587341 311.043640,522.809875 
	C348.857574,504.335602 386.007050,486.186005 423.156494,468.036407 
	C423.448486,468.352203 423.740479,468.667999 424.032471,468.983795 
	C417.854523,478.567841 411.676575,488.151917 405.498657,497.735962 
	C405.840698,498.073334 406.182739,498.410675 406.524811,498.748016 
	C413.694733,494.993713 420.864655,491.239410 428.681732,487.129028 
M844.352112,641.695679 
	C840.360779,661.416443 836.369446,681.137207 832.119934,702.133789 
	C835.540344,700.197876 837.696716,699.018250 839.814392,697.772705 
	C872.958679,678.277039 906.045288,658.682007 939.303101,639.382019 
	C943.600342,636.888245 944.485657,634.688660 942.996094,629.987976 
	C927.570068,581.306702 912.380737,532.550537 897.096313,483.824310 
	C896.468872,481.824066 896.262817,479.556152 894.110107,477.984436 
	C888.726135,480.882111 883.937195,484.739746 878.904053,488.226807 
	C876.838867,489.657562 875.894287,491.659454 875.390015,494.029633 
	C871.724854,511.256104 867.972595,528.464172 864.348633,545.699280 
	C857.681091,577.409058 851.082642,609.133301 844.352112,641.695679 
M174.942841,532.470093 
	C173.815659,533.351379 173.066666,534.883484 170.389420,534.514404 
	C159.794144,500.705170 149.091370,466.552856 138.211990,431.837036 
	C136.106842,434.354614 135.906616,436.571198 135.423645,438.619690 
	C127.487335,472.281891 119.624626,505.961517 111.684814,539.622925 
	C111.066696,542.243469 111.578514,544.492981 112.715652,546.821777 
	C126.303001,574.647644 139.841705,602.497253 153.437027,630.319153 
	C154.265167,632.013855 154.692596,634.253723 158.057434,634.515442 
	C189.924957,577.865784 220.514557,520.185669 250.758789,462.136566 
	C225.656784,485.414612 200.554764,508.692627 174.942841,532.470093 
M653.332825,77.920052 
	C641.036560,83.867462 628.762268,89.861153 616.425537,95.723412 
	C613.944275,96.902481 612.679077,98.464745 612.084473,101.239601 
	C609.087952,115.224770 605.850525,129.158463 602.678284,143.105804 
	C598.621277,160.942856 594.509705,178.767624 590.534668,196.622864 
	C590.144165,198.376617 588.870544,200.669891 591.377563,202.004074 
	C597.220154,205.113449 602.862976,208.637161 609.711487,211.298767 
	C615.447876,190.507843 621.096558,170.034622 627.026001,148.543900 
	C632.521118,153.357086 636.830139,157.236862 641.254150,160.980820 
	C647.373840,166.159821 647.441956,166.149857 653.177612,160.877075 
	C671.455383,144.074203 689.705811,127.241470 707.974182,110.428360 
	C709.545654,108.982101 711.005310,106.818558 713.415527,107.428551 
	C718.061035,108.604256 718.752747,105.522842 719.478699,102.333160 
	C722.245911,90.174446 725.034180,78.020233 727.724548,65.844460 
	C729.613464,57.296181 732.060364,48.851681 733.285950,38.901810 
	C706.250793,52.085217 680.123169,64.826118 653.332825,77.920052 
M637.703308,785.375549 
	C638.090759,783.589417 638.221191,781.695679 638.915039,780.037842 
	C640.821228,775.483459 638.483765,774.185669 634.540039,773.538269 
	C605.531006,768.776489 576.512878,764.062256 547.554871,759.005005 
	C542.985474,758.206970 541.895325,759.735291 540.997070,763.669128 
	C531.972656,803.189453 522.776245,842.670410 513.675598,882.173401 
	C513.257996,883.986206 512.520264,885.956726 513.893555,887.951050 
	C514.696594,887.664795 515.350647,887.537354 515.896118,887.222107 
	C552.639709,865.990051 589.357910,844.714111 626.143066,823.554382 
	C628.950256,821.939575 629.971069,819.623474 630.610229,816.813293 
	C632.931152,806.609375 635.256165,796.406494 637.703308,785.375549 
M815.903931,221.435318 
	C808.663330,199.415970 801.422729,177.396606 794.071533,155.040970 
	C792.294739,155.951813 791.652344,156.161591 791.153992,156.554230 
	C780.164673,165.212753 769.196045,173.897507 758.210205,182.560516 
	C756.388489,183.997055 755.725342,185.936203 755.230591,188.127396 
	C751.019043,206.777435 746.604187,225.382294 742.502991,244.056198 
	C740.524719,253.064102 737.881470,261.959656 736.743225,271.207611 
	C737.947876,271.675354 738.689087,272.114685 739.481995,272.249084 
	C767.676392,277.027863 795.874573,281.784180 824.077454,286.512665 
	C825.372437,286.729797 827.172974,286.949707 827.465332,285.292175 
	C828.625977,278.712189 832.520508,272.525391 830.184204,265.423798 
	C825.450012,251.033676 820.825500,236.607483 815.903931,221.435318 
M610.713196,634.756836 
	C621.293396,642.914856 631.873596,651.072937 642.453857,659.231018 
	C635.764648,640.284058 628.619629,621.834290 620.989868,603.587097 
	C619.120117,599.115601 620.200195,597.229614 624.011047,594.961609 
	C651.198853,578.780762 678.266663,562.398132 705.378235,546.089111 
	C715.169922,540.198975 724.977417,534.334839 734.777649,528.458862 
	C712.688477,531.145752 690.572266,532.890869 669.180298,538.153015 
	C624.772278,549.076721 580.625122,561.061951 536.387878,572.675720 
	C535.290527,572.963806 533.605591,572.759094 533.180664,574.956848 
	C558.756897,594.686340 584.450684,614.506531 610.713196,634.756836 
M819.918640,508.396759 
	C813.965942,515.468750 808.013245,522.540710 802.060608,529.612671 
	C804.355713,529.051331 806.038757,527.980530 807.664124,526.828369 
	C847.475403,498.608429 887.328735,470.447235 927.021362,442.061310 
	C931.612244,438.778198 935.332703,437.720428 939.730896,441.806946 
	C940.768860,442.771393 942.164734,443.568665 944.701477,443.357880 
	C956.190491,417.380310 967.843872,391.030914 979.497314,364.681488 
	C952.003418,382.290314 925.290283,400.431000 898.495117,418.449615 
	C894.700623,421.001251 891.522339,424.058533 888.599121,427.503937 
	C865.867493,454.296143 843.108276,481.064911 819.918640,508.396759 
M752.086914,777.202881 
	C761.115845,778.675659 770.124695,780.288574 779.178650,781.586914 
	C791.321655,783.328308 800.434570,776.867981 802.911499,764.852173 
	C806.906189,745.474670 810.737976,726.063538 814.739990,706.687561 
	C826.243164,650.994751 837.805054,595.314087 849.321594,539.624084 
	C850.836243,532.300171 852.265930,524.957764 853.638733,517.606018 
	C854.029114,515.515564 853.620728,513.546753 851.312256,512.654114 
	C849.783569,512.062988 848.168457,512.191589 847.278198,513.618591 
	C846.419556,514.994812 845.805115,516.616455 845.468445,518.211487 
	C840.353088,542.448669 835.252869,566.689148 830.244141,590.948486 
	C819.218323,644.350830 808.258606,697.766724 797.243958,751.171326 
	C794.280518,765.539368 781.559509,774.105530 767.234192,771.657593 
	C744.788330,767.821899 722.320068,764.117310 699.866272,760.328003 
	C657.580322,753.191895 615.281128,746.130920 573.034912,738.766724 
	C567.685913,737.834229 565.752319,739.931213 564.585266,744.362244 
	C566.521301,746.262512 568.919434,746.285156 571.169861,746.668030 
	C607.893982,752.915894 644.615479,759.179260 681.348145,765.376465 
	C704.635193,769.305237 727.939575,773.130981 752.086914,777.202881 
M698.280701,452.698090 
	C684.918762,476.496063 671.531433,500.279968 658.248596,524.122009 
	C657.305481,525.814819 654.904968,528.039185 657.286743,529.838501 
	C659.679993,531.646545 662.451599,530.050598 664.596863,528.498047 
	C665.733704,527.675293 666.408752,526.146118 667.148499,524.853516 
	C673.926758,513.008545 680.723267,501.173584 687.420776,489.282959 
	C714.131348,441.861450 740.545471,394.269897 767.665710,347.084076 
	C775.309570,333.784760 770.287964,321.833710 758.932312,315.541321 
	C728.057190,298.432831 697.410278,280.912537 666.658813,263.580536 
	C665.070801,262.685486 663.375977,261.963837 661.686157,261.270508 
	C660.106201,260.622284 658.279480,260.050964 657.231812,261.911987 
	C656.191772,263.759583 656.283508,265.847504 658.009277,267.346069 
	C659.251221,268.424561 660.738098,269.244476 662.181152,270.064545 
	C689.107849,285.366455 716.052429,300.636841 742.975769,315.944580 
	C759.512329,325.346710 763.185303,338.270233 754.056213,354.332642 
	C735.552490,386.889893 717.096741,419.474426 698.280701,452.698090 
M493.195526,210.677048 
	C497.827728,190.541443 502.459961,170.405838 507.234497,149.651749 
	C505.451569,149.949478 504.761353,149.915985 504.212219,150.178055 
	C488.449768,157.701172 472.707977,165.267639 456.943298,172.786133 
	C454.748932,173.832657 454.374176,175.285309 454.792969,177.633408 
	C458.086548,196.100388 461.096436,214.618790 464.493835,233.066071 
	C465.821411,240.274445 466.457428,247.664719 469.054657,255.559143 
	C475.540100,244.052948 481.600983,233.360092 487.595886,222.630341 
	C489.614380,219.017670 492.190369,215.657349 493.195526,210.677048 
M180.061020,685.555420 
	C184.325134,694.266113 188.589249,702.976746 193.400070,712.804199 
	C199.658401,698.018372 205.341965,684.551453 211.072784,671.104614 
	C211.727722,669.567871 211.337708,668.224915 210.893219,666.767212 
	C204.444733,645.618591 198.033051,624.458862 191.584457,603.310242 
	C191.211609,602.087463 190.992371,600.682556 189.294373,599.983826 
	C188.820190,600.562195 188.202209,601.117126 187.825790,601.804321 
	C179.753632,616.539856 171.751328,631.313904 163.618668,646.015869 
	C162.161362,648.650330 163.072083,650.759277 164.188644,653.041565 
	C169.379410,663.651672 174.544205,674.274475 180.061020,685.555420 
M225.234024,702.915894 
	C227.376114,684.280701 229.518204,665.645508 231.798447,645.808411 
	C213.782089,689.355469 196.357498,731.849060 180.241241,774.857727 
	C180.625381,775.240051 181.009521,775.622314 181.393661,776.004639 
	C208.098312,765.722046 234.802979,755.439514 262.323547,744.842773 
	C260.313477,744.205627 259.125671,743.701233 257.886536,743.456482 
	C247.448792,741.394775 237.035583,739.173706 226.540726,737.453674 
	C222.331909,736.763916 221.355804,734.836365 221.845764,731.025391 
	C223.010925,721.962585 223.987549,712.875610 225.234024,702.915894 
M480.605469,732.919556 
	C467.676941,725.692627 454.735168,718.489197 441.830536,711.219849 
	C439.136475,709.702271 437.013458,708.619934 434.960480,712.384399 
	C425.320221,730.061340 415.455627,747.615845 405.722534,765.242493 
	C404.797913,766.916992 403.271362,768.821960 405.015808,770.722229 
	C406.678589,772.533569 408.749298,771.441589 410.613556,770.810425 
	C436.612793,762.008606 462.612885,753.209106 488.585815,744.330139 
	C490.333038,743.732849 492.597900,743.539429 493.448090,740.472534 
	C489.452972,738.114441 485.351166,735.693420 480.605469,732.919556 
M560.075562,202.476028 
	C555.564575,199.963821 551.058655,197.442505 546.541626,194.941147 
	C534.423584,188.230591 523.301086,191.538101 516.585632,203.626801 
	C507.286072,220.367065 497.838226,237.024933 488.459961,253.721466 
	C468.645874,288.997314 448.832031,324.273315 429.033051,359.557678 
	C427.836578,361.689941 425.874817,364.074860 429.024963,366.030548 
	C431.938538,367.839355 434.102692,366.192017 435.669708,363.689484 
	C437.789093,360.304840 439.908691,356.913879 441.859253,353.430969 
	C466.920746,308.680725 491.889099,263.878143 517.026245,219.170486 
	C525.552734,204.005676 540.064087,200.343048 555.281250,208.966034 
	C567.888733,216.110214 580.556335,223.148499 593.224731,230.184418 
	C595.044434,231.195068 596.804688,232.690338 599.138123,231.975281 
	C601.700134,227.818161 600.283203,225.329910 596.316162,223.133499 
	C584.366516,216.517365 572.564331,209.634995 560.075562,202.476028 
M487.563293,718.877319 
	C499.477081,725.556702 511.636658,731.839294 523.236572,739.025391 
	C535.206909,746.440918 548.680786,740.530457 554.123901,730.009216 
	C561.387207,715.969543 569.641968,702.443909 577.434509,688.676819 
	C585.390625,674.620728 593.345459,660.563477 601.179626,646.439392 
	C602.150208,644.689575 604.131775,642.823792 602.630432,640.524109 
	C601.638184,639.004272 600.121826,637.587585 598.181824,637.639221 
	C596.013794,637.696899 595.422852,639.856323 594.559570,641.390076 
	C580.841553,665.763855 567.142822,690.148499 553.491821,714.559814 
	C545.046448,729.662292 530.984619,733.950500 515.850220,725.648743 
	C499.933472,716.917725 484.158508,707.928284 468.319885,699.054810 
	C461.962494,695.493225 455.600586,691.939697 449.347992,688.442444 
	C447.108185,690.490601 446.097107,692.487061 445.741333,695.392395 
	C459.402924,703.063904 473.163971,710.791260 487.563293,718.877319 
M301.077026,597.824097 
	C298.123108,609.314270 301.355103,617.340759 311.553406,623.040710 
	C336.690063,637.089661 361.878174,651.046570 387.056519,665.020813 
	C391.879700,667.697754 393.744659,667.113403 397.000488,662.073914 
	C396.093475,660.561523 394.473846,659.978088 393.047546,659.184143 
	C371.522644,647.203125 349.996704,635.223877 328.439148,623.301758 
	C322.915344,620.247009 318.361572,616.376770 315.556091,610.539612 
	C310.952545,600.961304 313.165985,592.332214 318.144043,583.556335 
	C329.883972,562.859863 341.275818,541.965454 352.734528,521.110413 
	C353.951752,518.895081 355.745331,516.738586 355.184784,513.536011 
	C350.491974,513.367432 347.095703,514.922058 344.871857,519.050171 
	C341.636719,525.055481 338.254120,530.981323 334.928009,536.937439 
	C323.734894,556.981018 312.538940,577.023010 301.077026,597.824097 
M860.939331,318.226257 
	C862.949158,318.938599 864.230774,321.052216 866.723206,321.245239 
	C869.285339,318.552826 872.089600,316.024902 874.745667,311.440979 
	C832.128235,303.568146 789.979126,297.472168 747.897095,290.738129 
	C754.488159,294.409760 759.987488,300.212128 767.496277,301.550446 
	C788.115112,305.225433 808.846008,308.267517 829.482483,311.849060 
	C839.779419,313.636169 850.337891,314.183411 860.939331,318.226257 
M57.376331,405.025726 
	C59.933758,393.460266 62.491188,381.894806 65.387276,368.797821 
	C54.868950,373.568542 46.108234,378.097656 37.577183,383.068329 
	C35.363453,384.358154 36.019070,386.497742 36.891998,388.398071 
	C39.040585,393.075470 41.110428,397.794464 43.430622,402.386230 
	C46.526638,408.513397 48.836643,415.066895 53.064079,421.245453 
	C55.288433,415.880035 55.873707,410.763062 57.376331,405.025726 
M223.490097,292.885742 
	C225.952484,294.563446 228.634827,295.996918 230.828537,297.972900 
	C234.648041,301.413269 237.613586,300.673431 240.959686,297.192169 
	C247.744156,290.133698 254.833557,283.369324 261.711823,276.399414 
	C263.930481,274.151184 265.881714,271.639008 267.955292,269.247589 
	C253.571487,275.701202 239.897018,282.829132 226.246216,290.002136 
	C225.131577,290.587860 223.656311,290.831512 223.490097,292.885742 
M234.246902,765.962280 
	C231.622681,766.934021 228.982971,767.866577 226.380341,768.893066 
	C224.935669,769.462952 223.585602,770.253052 224.310120,772.191956 
	C226.529099,778.130676 229.271362,783.794434 232.947540,789.944519 
	C235.598923,783.867310 236.097977,778.397705 237.602646,773.210632 
	C238.503265,770.105896 237.794785,767.705750 234.246902,765.962280 
M686.875671,255.538376 
	C689.199890,249.053970 690.261597,242.302887 691.771484,234.370911 
	C685.101990,239.633789 679.399597,244.133591 673.274902,248.966537 
	C678.208069,251.627686 681.668335,254.858719 686.875671,255.538376 
M402.933624,412.429688 
	C401.502167,416.172760 398.144440,419.299316 398.672058,424.682922 
	C403.544312,421.676056 407.167145,418.627228 410.243805,415.019684 
	C414.006927,410.607239 413.377502,408.145782 408.021332,404.961975 
	C405.666138,406.686188 404.779572,409.448395 402.933624,412.429688 
M776.868958,108.497208 
	C779.557129,104.842255 776.171692,102.573021 775.315491,99.713234 
	C773.835754,102.739540 772.716614,105.644432 773.195923,109.125618 
	C774.370789,108.947563 775.325439,108.802879 776.868958,108.497208 
z"/>
</svg>